<svg width="510" height="510" viewBox="0 0 510 510" fill="none" xmlns="http://www.w3.org/2000/svg">
<path d="M153 459.001H357L204 255.001H0L153 459.001Z" fill="#2CBCA8"/>
<path d="M357 459L510 255L357 51L204 255L357 459Z" fill="#28DAC8"/>
<path d="M204 255L357 51H153L0 255H204Z" fill="#69FBEF"/>
<mask id="mask0_866_55663" style="mask-type:luminance" maskUnits="userSpaceOnUse" x="153" y="51" width="278" height="408">
<path fill-rule="evenodd" clip-rule="evenodd" d="M226.817 51H153V255V459H226.794V255.956L226.817 191.853V51Z" fill="white"/>
<path d="M269.144 167.813C253.229 173.908 239.007 181.695 226.817 191.853L226.794 255.956L227.156 255.508C235.621 246.705 245.78 239.256 257.292 233.5C268.805 227.744 281.334 225.035 294.878 225.035C314.856 225.035 330.432 230.791 340.929 242.303C351.426 253.815 356.844 273.453 356.844 301.556V459H431V283.611C431 238.578 421.857 206.751 403.234 187.451C384.61 168.152 356.505 158.671 318.92 158.671C301.65 158.671 285.058 161.719 269.144 167.813Z" fill="white"/>
</mask>
<g mask="url(#mask0_866_55663)">
<path d="M153 459H357L204 255H0L153 459Z" fill="white"/>
<path d="M357 459L510 255L357 51L204 255L357 459Z" fill="white"/>
<path d="M204 255L357 51H153L0 255H204Z" fill="white"/>
</g>
</svg>
