<svg width="466" height="145" viewBox="0 0 466 145" fill="none" xmlns="http://www.w3.org/2000/svg">
<path d="M165 29.8125H177.693V54.0864C179.789 52.3358 182.235 50.9938 184.972 49.9435C187.708 48.8932 190.561 48.368 193.531 48.368C199.994 48.368 204.827 50.0018 208.029 53.3278C211.231 56.6538 212.804 62.1387 212.804 69.8994V100.125H200.052V72.992C200.052 68.1489 199.12 64.7645 197.315 62.7806C195.51 60.7967 192.832 59.8047 189.397 59.8047C187.068 59.8047 184.913 60.2715 182.934 61.2635C180.954 62.2554 179.207 63.5392 177.751 65.0563V100.125H165V29.8125Z" fill="#0B9DBC"/>
<path d="M230.045 98.0933C226.309 95.9329 223.448 92.8382 221.463 88.8676C219.478 84.8971 218.427 80.1675 218.427 74.7956C218.427 69.482 219.42 64.8108 221.463 60.8403C223.448 56.8697 226.309 53.775 229.928 51.6146C233.548 49.4541 237.693 48.3447 242.421 48.3447C245.282 48.3447 248.084 48.8118 250.886 49.6877C253.689 50.5636 256.024 51.9649 258.009 53.8918V49.5125H270.619V100.137H258.184V95.2322C256.374 97.451 254.156 99.0276 251.412 99.9034C248.668 100.779 245.866 101.246 242.947 101.246C238.101 101.363 233.781 100.254 230.045 98.0933ZM252.988 88.167C255.207 87.0575 256.958 85.3642 258.184 83.1454V66.3874C256.958 64.3437 255.148 62.7671 252.813 61.5993C250.478 60.4315 248.026 59.906 245.516 59.906C241.371 59.906 238.043 61.249 235.474 63.8766C232.964 66.5041 231.68 70.1827 231.68 74.854C231.68 79.4668 232.964 83.1454 235.474 85.8313C237.985 88.5173 241.429 89.8603 245.749 89.8603C248.318 89.8603 250.77 89.2764 252.988 88.167Z" fill="#28DAC8"/>
<path d="M280.064 40.9956C278.547 39.478 277.729 37.6101 277.729 35.4504C277.729 33.2907 278.488 31.4229 280.064 29.9053C281.581 28.3876 283.449 27.5704 285.608 27.5704C287.767 27.5704 289.635 28.3292 291.152 29.9053C292.67 31.4229 293.428 33.2907 293.428 35.4504C293.428 37.6101 292.67 39.478 291.152 40.9956C289.635 42.5133 287.826 43.3304 285.608 43.3304C283.507 43.3304 281.64 42.5716 280.064 40.9956ZM279.072 49.5177H292.028V100.125H279.072V49.5177Z" fill="#28DAC8"/>
<path d="M300.511 49.4537H312.827V56.0503C314.694 53.6568 316.912 51.7304 319.597 50.3877C322.282 49.0451 325.259 48.3445 328.585 48.3445C330.103 48.3445 331.329 48.5197 332.087 48.8116V62.6469C329.753 62.0047 327.71 61.7128 325.959 61.7128C322.165 61.7128 319.13 62.9388 316.796 65.449C314.461 67.9008 313.294 71.5202 313.294 76.1903V100.125H300.511V49.4537Z" fill="#0B9DBC"/>
<path d="M337.711 49.525H350.456V53.9513C352.462 52.0037 354.882 50.5873 357.655 49.7021C360.487 48.8169 363.319 48.3447 366.21 48.3447C370.931 48.3447 375.179 49.466 378.838 51.6496C382.496 53.8332 385.328 56.9611 387.334 60.9742C389.34 64.9873 390.344 69.7086 390.344 75.079C390.344 80.5085 389.34 85.2298 387.275 89.3019C385.269 93.315 382.378 96.4429 378.661 98.6265C374.943 100.81 370.636 101.931 365.679 101.931C362.729 101.931 359.956 101.459 357.242 100.574C354.527 99.6887 352.285 98.0953 350.515 95.8527V117.002H337.77V49.525H337.711ZM373.173 86.174C375.71 83.4593 377.008 79.7413 377.008 75.079C377.008 70.3577 375.769 66.6397 373.232 63.984C370.695 61.3283 367.332 59.9709 363.142 59.9709C360.605 59.9709 358.127 60.5611 355.767 61.6824C353.406 62.8627 351.577 64.4561 350.338 66.5217V83.4593C351.636 85.7019 353.406 87.4134 355.649 88.5347C357.891 89.656 360.31 90.2462 362.906 90.2462C367.155 90.2462 370.577 88.8888 373.173 86.174Z" fill="#0B9DBC"/>
<path d="M396.687 49.5177H409.643V100.125H396.687V49.5177Z" fill="#0B9DBC"/>
<path d="M395.316 34.8799C395.316 37.0396 396.133 38.9075 397.65 40.4251C399.226 42.0011 401.094 42.7599 403.195 42.7599C405.412 42.7599 407.221 41.9428 408.739 40.4251C410.256 38.9075 411.015 37.0396 411.015 34.8799C411.015 32.7202 410.256 30.8524 408.739 29.3348C407.221 27.7588 405.354 26.9999 403.195 26.9999C401.035 26.9999 399.168 27.8171 397.65 29.3348C396.075 30.8524 395.316 32.7202 395.316 34.8799Z" fill="#0B9DBC"/>
<path d="M418.078 49.4537H430.393V54.0655C432.552 52.3142 435.062 50.9715 437.864 49.9207C440.665 48.8699 443.583 48.3445 446.618 48.3445C453.097 48.3445 457.941 49.9791 461.152 53.3066C464.362 56.6341 465.938 62.1215 465.938 69.8856V100.125H453.214V73.038C453.214 68.1927 452.28 64.8068 450.471 62.822C448.661 60.8372 445.976 59.8448 442.533 59.8448C440.198 59.8448 438.039 60.3118 436.054 61.3042C434.07 62.2966 432.319 63.5809 430.86 65.0987V100.066H418.078V49.4537Z" fill="#0B9DBC"/>
<path d="M43.5 130.5H101.5L58 72.5002H0L43.5 130.5Z" fill="#2CBCA8"/>
<path d="M101.5 130.5L145 72.5L101.5 14.5L58 72.5L101.5 130.5Z" fill="#28DAC8"/>
<path d="M58 72.5L101.5 14.5H43.5L0 72.5H58Z" fill="#69FBEF"/>
<mask id="mask0_866_55671" style="mask-type:luminance" maskUnits="userSpaceOnUse" x="43" y="14" width="80" height="117">
<path fill-rule="evenodd" clip-rule="evenodd" d="M64.4873 14.5H43.5V72.5V130.5H64.4806V72.7719L64.4873 54.5465V14.5Z" fill="white"/>
<path d="M76.5213 47.7116C71.9965 49.4444 67.9531 51.6585 64.4873 54.5465L64.4806 72.7719L64.5835 72.6444C66.9903 70.1415 69.8785 68.0237 73.1517 66.3871C76.425 64.7506 79.987 63.9805 83.8379 63.9805C89.518 63.9805 93.9465 65.617 96.9309 68.89C99.9153 72.1631 101.456 77.7465 101.456 85.7365V130.5H122.539V80.6344C122.539 67.8311 119.94 58.7822 114.645 53.295C109.35 47.8079 101.359 45.1124 90.6732 45.1124C85.7634 45.1124 81.046 45.9788 76.5213 47.7116Z" fill="white"/>
</mask>
<g mask="url(#mask0_866_55671)">
<path d="M43.5 130.5H101.5L58 72.5001H0L43.5 130.5Z" fill="white"/>
<path d="M101.5 130.5L145 72.4999L101.5 14.5L58 72.5001L101.5 130.5Z" fill="white"/>
<path d="M58 72.5001L101.5 14.5H43.5L0 72.5001H58Z" fill="white"/>
</g>
</svg>
